Coordinates
version=1
nRows=13
nColumns=36
inDegrees=yes

Units are S.I. units (second, meters, Newtons, ...)
If the header above contains a line with 'inDegrees', this indicates whether rotational values are in degrees (yes) or radians (no).

endheader
time	pelvis_tilt	pelvis_list	pelvis_rotation	pelvis_tx	pelvis_ty	pelvis_tz	hip_flexion_r	hip_adduction_r	hip_rotation_r	knee_angle_r	knee_angle_r_beta	ankle_angle_r	subtalar_angle_r	mtp_angle_r	hip_flexion_l	hip_adduction_l	hip_rotation_l	knee_angle_l	knee_angle_l_beta	ankle_angle_l	subtalar_angle_l	mtp_angle_l	lumbar_extension	lumbar_bending	lumbar_rotation	arm_flex_r	arm_add_r	arm_rot_r	elbow_flex_r	pro_sup_r	arm_flex_l	arm_add_l	arm_rot_l	elbow_flex_l	pro_sup_l
      8.85000000	     -4.62686171	     11.56533960	      0.01466492	      0.11137046	      0.97606199	      0.07125362	     11.78903603	     -3.82349665	      8.79866879	     16.48268115	      0.28767706	     19.62570941	      3.49225096	     -7.49999987	     40.41201336	      4.24343242	     -5.09501246	     14.53890397	      0.25375174	     -0.80039000	     -2.49449450	     -7.49999987	      0.50895161	     -8.19843794	      3.02380351	     77.76518816	     17.50892793	     57.41991445	    144.97325181	    104.96845760	     95.19360601	     12.14160890	     72.64175894	    106.48021953	     82.56334473
      8.86666670	     -4.44359528	     11.29086011	      0.38495173	      0.10903004	      0.97574453	      0.07028561	     12.80901675	     -3.56587286	      8.17124589	     18.30357831	      0.31945771	     19.70143670	      3.50582789	     -7.49999987	     40.46680021	      4.21780528	     -5.09031347	     14.39659479	      0.25126798	     -1.06683199	     -2.24614708	     -7.49999987	     -0.65147833	     -7.83111743	      3.57849625	     79.04102981	     16.68822730	     56.69087983	    144.44812181	    104.87298311	     96.17941421	     12.85464772	     72.50684223	    106.10500516	     83.03025396
      8.88333330	     -4.49665859	     11.20155209	      0.53329475	      0.10752963	      0.97217350	      0.06997198	     13.99901847	     -3.45138567	      7.58392486	     20.25456071	      0.35350877	     20.04250817	      3.40443683	     -7.49999987	     40.84204416	      4.22120481	     -5.17844303	     14.34772934	      0.25041512	     -1.39189503	     -2.35910981	     -7.49999987	     -1.41304474	     -7.62499584	      3.33200614	     79.59632781	     16.50385524	     56.14207524	    144.08489366	    104.50987438	     97.00230566	     12.64048049	     72.77308448	    105.48277443	     83.44213448
      8.90000000	     -4.37475440	     11.03256619	      0.53485150	      0.10492625	      0.96883293	      0.06984004	     15.22399870	     -3.23101008	      7.16277510	     22.31102944	      0.38940092	     20.67943015	      3.33494883	     -7.49999987	     41.08190654	      4.08780938	     -5.21188095	     14.33841889	      0.25025262	     -1.57286483	     -2.23380492	     -7.49999987	     -2.20444167	     -7.34504426	      3.20738503	     80.32641424	     16.37643572	     55.87620042	    144.17435534	    103.27043967	     97.77209193	     12.49713837	     72.81283524	    105.58522526	     82.72057167
      8.91666670	     -4.43214534	     11.14415127	      0.45555445	      0.10147075	      0.96486053	      0.06945790	     16.47771013	     -3.28800298	      7.06387568	     24.47236107	      0.42712328	     22.06812137	      3.30707115	     -7.49999987	     41.42821071	      4.10074467	     -5.54569273	     14.08452509	      0.24582134	     -1.81369645	     -2.23981824	     -7.49999987	     -2.74906248	     -7.47463242	      3.09988560	     81.33227248	     16.53156058	     56.24972359	    144.34187759	    102.73554667	     98.40456464	     12.38003501	     72.94308153	    106.01275764	     82.39646997
      8.93333330	     -4.04026175	     10.84868316	      0.30764069	      0.10039642	      0.96310926	      0.06881953	     17.39355524	     -2.96668372	      6.92316466	     26.15230661	      0.45644386	     22.94685390	      3.28420617	     -7.49999987	     41.19123289	      3.85009050	     -5.47792807	     13.57579583	      0.23694234	     -1.99010830	     -1.97738320	     -7.49999987	     -3.45196795	     -7.12577273	      2.83637261	     82.29534502	     17.14726473	     58.22496377	    144.36563956	    102.58213980	     98.59424890	     12.12878467	     73.24907684	    106.15308766	     82.14231926
      8.95000000	     -4.26949348	     10.61597084	      0.77138692	      0.09736434	      0.95637746	      0.06873763	     18.88155805	     -2.79878379	      6.43491180	     27.99354544	      0.48857954	     24.21950518	      3.34526550	     -7.49999987	     41.90624925	      3.86395505	     -5.26519332	     13.43308287	      0.23445152	     -2.08796004	     -2.07812130	     -7.49999987	     -3.90536311	     -6.78993382	      2.61075216	     83.61266120	     17.49551210	     59.58283732	    144.34070114	    103.57222344	     99.37640569	     12.28088242	     73.01175394	    106.85688636	     82.73682947
      8.96666670	     -4.22815037	     10.36582084	      0.91554737	      0.09322972	      0.95138858	      0.06831529	     20.13066698	     -2.52767710	      6.16348977	     29.88213561	      0.52154165	     25.43123925	      3.40548564	     -7.49999987	     42.41784690	      3.68459562	     -5.16670839	     13.34506890	      0.23291539	     -2.30871925	     -1.67348736	     -7.49999987	     -4.90556429	     -6.48450505	      2.93969387	     85.16325741	     17.63262860	     60.24835600	    144.38436435	    107.14048017	    100.54480590	     12.97249250	     72.55560701	    107.21636563	     85.71379698
      8.98333330	     -4.24005495	      9.87101275	      0.98555814	      0.09164523	      0.94640057	      0.06739673	     21.72250332	     -2.02281675	      5.91056577	     32.12035933	      0.56060603	     26.25811839	      3.40281840	     -7.49999987	     42.94156086	      3.27931842	     -4.88802772	     13.17128499	      0.22988229	     -2.35130831	     -1.54829257	     -7.49999987	     -5.80982793	     -5.77013352	      3.36735551	     86.44258715	     17.12526346	     60.21221988	    144.50319822	    105.53623347	    101.53633991	     13.66145592	     72.09546705	    107.95174466	     84.90970129
      9.00000000	     -4.39774968	      9.58716275	      0.90686673	      0.08736761	      0.94030118	      0.06727134	     23.45839464	     -1.66885346	      5.79048894	     34.33400294	      0.59924140	     27.08573927	      3.32451741	     -7.49999987	     43.72072364	      2.94413942	     -4.76114234	     13.06708769	      0.22806370	     -2.68937095	     -1.63425343	     -7.49999987	     -6.81699439	     -5.35915412	      3.74282099	     87.90645986	     17.07291432	     60.60401184	    144.75682147	    104.55814470	    102.58421600	     13.72542585	     72.22047735	    107.70120756	     84.31621705
      9.01666670	     -4.08227061	      9.00975550	      0.78056897	      0.08337886	      0.93919550	      0.06710947	     24.79533432	     -1.04996439	      5.64794658	     36.19994193	      0.63180818	     27.22108247	      3.46105983	     -7.49999987	     43.71179518	      2.39944655	     -4.41082140	     12.67025408	      0.22113765	     -3.31667443	     -1.72583509	     -7.49999987	     -8.39158932	     -4.50130274	      3.78449406	     89.05431876	     17.11514722	     61.42356155	    144.96253342	    108.78719957	    103.65651416	     13.73122266	     72.38728629	    107.26695909	     87.50279344
      9.03333330	     -4.04261923	      8.61573857	      0.97318692	      0.07961258	      0.93236901	      0.06590360	     26.23122403	     -0.73385038	      5.25088113	     38.17253522	      0.66623642	     28.06402946	      3.60440046	     -7.49999987	     44.31176753	      2.17204854	     -4.42371996	     12.53817576	      0.21883245	     -3.46057715	     -1.66065445	     -7.49999987	     -9.59104550	     -3.89070972	      3.57409865	     90.20154064	     17.60215182	     63.02831644	    144.82826488	    107.10694158	    104.55044498	     13.79838882	     72.44901980	    108.43819651	     86.86924354
      9.05000000	     -3.70714783	      8.15762297	      1.01705901	      0.07843821	      0.92537799	      0.06532059	     27.04285897	     -0.27924391	      5.04591130	     40.00458467	      0.69821172	     29.17459297	      3.83605627	     -7.49999987	     44.36088957	      1.78944847	     -4.42304713	     12.14763016	      0.21201614	     -3.45930213	     -1.05317412	     -7.49999987	    -10.82986145	     -3.19972096	      3.43369004	     91.09828276	     17.40690557	     63.22982199	    144.72589225	    107.86338367	    105.26602697	     13.71227578	     72.06204761	    109.10179555	     87.74242477
